<svg xmlns="http://www.w3.org/2000/svg" viewBox="0 0 473.29 312.87"><defs><style>.cls-1{fill:#231f20;}</style></defs><g id="Layer_2" data-name="Layer 2"><g id="Layer_1-2" data-name="Layer 1"><path class="cls-1" d="M74.49,233.69c1,.82,1.93,1.8,3,2.52,3.27,2.22,8.48,1.11,11.06-2.49,2.46-3.37-.72-5.14-2.42-7.27a19.54,19.54,0,0,0-2.26-2.19c-15.12-13.75-41.38-16.44-58.67-5.93A51.79,51.79,0,0,0,2.36,276.22c6.55,23.31,23.81,36.43,47.9,36.5,12.15,0,23.34-2.85,32.84-10.84,1.8-1.54,3.63-3,4.58-5.3a7.47,7.47,0,0,0-2.35-9.1c-3.15-2.56-5.28-.53-7.4,1.57-.56.56-1.12,1.11-1.71,1.64-11.32,10.05-24.29,11.72-38.1,6.54-13.26-5-20-15.32-22-29.1a40.36,40.36,0,0,1,1.05-16.34C23.87,225.83,53.76,216.43,74.49,233.69Zm305.32,54.38c-3.66-2.79-4.42-2.79-9.23,1.7-12.11,11.3-26.09,12.9-40.79,6.91-14.24-5.8-19.71-18.14-20.69-32.54-1.31-18.7,10.57-34.81,27.86-38.37a34.69,34.69,0,0,1,19.58,1.37c.52.2,1.08.43,1.6.65a42.19,42.19,0,0,1,4.65,2.46,44.82,44.82,0,0,1,7.27,5.63c3.4,3.21,6.51,3,10-.29,2.88-2.72,2.92-5.14-.19-8.88a38.4,38.4,0,0,0-16-11c-20.16-7.92-42.23-3.27-56.37,11.79s-17.85,38.6-8.75,57.81c9.3,19.65,26.23,26.56,42.86,27.37,17.58.17,29.4-4.38,38.89-14.56C384.82,293.47,384.66,291.8,379.81,288.07ZM182.66,243.38c-.85-17.68-15.75-30.65-33.43-31.17A39.5,39.5,0,0,0,120,223.31c-1.08,1-2.1,2.55-3.93,1.9s-1.57-2.49-1.61-4c-.09-2.35-.06-4.71-.06-7,0-12.58.1-25.15-.1-37.72-.07-5.93-1-6.78-5.89-7.2-7.47-.66-8.52.32-8.55,8.08V296.68a36.09,36.09,0,0,0,.23,6.25,9.54,9.54,0,0,0,9.53,7.76c3.6-.23,4.38-1.73,4.45-8.38V300c.13-14.63.07-29.3.43-43.93.23-10.25,4.32-18.89,12.7-25,8.87-6.49,18.63-8.25,28.84-3.38,9.73,4.65,12.57,13.36,12.64,23.41q.15,24,.33,47.9a55,55,0,0,0,.23,7c.52,4.19,2,5.11,7.26,4.91s6.65-1.05,6.65-5.53C183.15,284.73,183.67,264,182.66,243.38ZM468.93,303C458,289,447,275,436.06,260.93c-4.49-5.73-4.39-6,.72-10.94,10.54-10.15,21.12-20.3,31.63-30.54,1.37-1.35,3.6-2.26,3.37-4.82-14-2.29-15.13-1.93-24.36,7.14q-15.92,15.72-32,31.27c-1.86,1.8-3.4,4-6.61,5.07-1.31-3.11-.82-5.73-.85-8.25q0-34.52,0-69.08c0-1.83.06-3.7-.07-5.5-.36-4.88-1.21-5.66-6.28-6-7.2-.53-8.09.29-8.19,7.59v1.57q0,53.39,0,106.77c0,6.81.07,13.62.43,20.39.23,4.23,1.83,5.18,7.07,5.21s6.55-.72,7.07-5.08a75.83,75.83,0,0,0-.23-15.65c-.72-8.44,2.16-15.35,8.61-20.88,5.27-4.55,5.21-4.65,9.46.88q13.67,17.73,27.28,35.46c1.73,2.26,3.14,5,6.54,5,4.36,0,8.71.49,13-.36C472.83,306.53,470.44,305,468.93,303Zm-199-81.59c-14.83-10.54-31-12.21-47.67-5.17-27.47,11.55-35.72,41.61-25.44,67.34,8.42,21.09,30.55,32.38,54.64,28.55,11.23-1.8,21-6.45,28.52-15.09,1.28-1.48,3.47-3.05,1.83-5.37-1.83-2.59-4.09-4.94-7.23-5.73-2.56-.62-3.24,2.23-4.82,3.47-.58.49-1.14,1-1.7,1.6-16.17,15.16-51.17,11.86-58.63-15.84-2.07-7.66-1.93-8.15,5.69-8.22,10.74,0,21.48,0,32.19,0v-.16h34.54c2.78,0,5.4-.1,5.5-3.87C287.82,246.42,284.18,231.56,269.91,221.41ZM267,255.66c-9.13.16-18.23,0-27.37,0-8.87,0-17.74.13-26.61,0-4.75-.07-5.44-1.22-4.23-5.77,5.44-20.29,27.7-30.84,46.53-22,9.23,4.29,14.37,11.72,16.43,21.51C272.79,254.35,272,255.56,267,255.66Z"/><path class="cls-1" d="M269.91,221.41c-14.83-10.54-31-12.21-47.67-5.17-27.47,11.55-35.72,41.61-25.44,67.34,8.42,21.09,30.55,32.38,54.64,28.55,11.23-1.8,21-6.45,28.52-15.09,1.28-1.48,3.47-3.05,1.83-5.37-1.83-2.59-4.09-4.94-7.23-5.73-2.56-.62-3.24,2.23-4.82,3.47-.58.49-1.14,1-1.7,1.6-16.17,15.16-51.17,11.86-58.63-15.84-2.07-7.66-1.93-8.15,5.69-8.22,10.74,0,21.48,0,32.19,0v-.16h34.54c2.78,0,5.4-.1,5.5-3.87C287.82,246.42,284.18,231.56,269.91,221.41ZM267,255.66c-9.13.16-18.23,0-27.37,0-8.87,0-17.74.13-26.61,0-4.75-.07-5.44-1.22-4.23-5.77,5.44-20.29,27.7-30.84,46.53-22,9.23,4.29,14.37,11.72,16.43,21.51C272.79,254.35,272,255.56,267,255.66Z"/><path class="cls-1" d="M468.92,303C458,288.94,447,275,436.05,260.94c-4.48-5.76-4.39-6,.73-10.94q15.84-15.24,31.62-30.54c1.38-1.35,3.62-2.26,3.38-4.81-14-2.31-15.14-1.94-24.35,7.13q-15.94,15.69-32,31.27c-1.85,1.79-3.41,4-6.62,5.06-1.31-3.1-.82-5.71-.83-8.25q-.06-34.55,0-69.09c0-1.83.08-3.67,0-5.5-.37-4.88-1.23-5.65-6.3-6-7.19-.52-8.07.3-8.18,7.59,0,.52,0,1,0,1.57q0,53.4,0,106.78c0,6.81.06,13.62.43,20.4.23,4.23,1.82,5.17,7.06,5.2s6.54-.72,7.06-5.06a76,76,0,0,0-.21-15.67c-.74-8.43,2.15-15.35,8.59-20.89,5.27-4.53,5.22-4.63,9.46.88q13.65,17.73,27.27,35.47c1.74,2.26,3.16,5,6.58,5,4.33,0,8.71.5,13-.35C472.84,306.55,470.45,305,468.92,303Z"/><path class="cls-1" d="M149.23,212.2A39.55,39.55,0,0,0,120,223.32c-1.08,1-2.1,2.55-3.93,1.9s-1.55-2.51-1.61-4c-.1-2.35,0-4.71,0-7.06,0-12.56.09-25.13-.09-37.68-.08-5.94-1-6.79-5.92-7.22-7.44-.66-8.51.32-8.52,8.09q0,30.22,0,60.45,0,29.44,0,58.88a35.38,35.38,0,0,0,.23,6.27,9.53,9.53,0,0,0,9.53,7.73c3.58-.23,4.37-1.72,4.44-8.37,0-.79,0-1.57,0-2.36.12-14.65.06-29.3.41-43.95.24-10.23,4.35-18.87,12.71-25,8.88-6.48,18.65-8.24,28.84-3.37,9.75,4.66,12.59,13.35,12.65,23.41Q168.83,275,169,299a59.22,59.22,0,0,0,.2,7.06c.53,4.17,2.06,5.1,7.27,4.91s6.65-1.07,6.65-5.53c0-20.67.52-41.38-.47-62C181.82,225.69,166.9,212.74,149.23,212.2Z"/><path class="cls-1" d="M379.8,288.08c-3.64-2.79-4.41-2.78-9.23,1.71-12.11,11.29-26.07,12.89-40.79,6.9-14.24-5.81-19.71-18.14-20.7-32.56-1.28-18.7,10.59-34.8,27.88-38.36,12.81-2.64,23.7,1.31,33.09,10.13,3.4,3.19,6.51,3,10-.3,2.88-2.74,2.93-5.14-.18-8.89a38.55,38.55,0,0,0-16-11c-20.16-7.91-42.21-3.27-56.38,11.81s-17.82,38.59-8.71,57.81c9.29,19.63,26.21,26.54,42.84,27.37,17.58.17,29.41-4.4,38.89-14.59C384.82,293.46,384.67,291.79,379.8,288.08Z"/><path class="cls-1" d="M83.85,224.27c-15.11-13.77-41.39-16.44-58.66-6A51.76,51.76,0,0,0,2.37,276.21c6.54,23.3,23.79,36.45,47.89,36.51,12.14,0,23.34-2.84,32.84-10.84,1.81-1.52,3.62-3,4.57-5.29a7.51,7.51,0,0,0-2.33-9.12c-3.17-2.53-5.28-.5-7.41,1.58-.57.55-1.11,1.13-1.69,1.65-11.36,10.05-24.32,11.72-38.12,6.54-13.28-5-20-15.34-22-29.1a40.79,40.79,0,0,1,1.06-16.36c6.76-26,36.64-35.35,57.37-18.1,1,.83,1.91,1.82,3,2.54,3.27,2.21,8.47,1.11,11.06-2.48,2.44-3.39-.74-5.17-2.43-7.29A19.43,19.43,0,0,0,83.85,224.27Z"/><path class="cls-1" d="M179.09,43.72c-4.68-.39-10.12.43-15.45,1.74-21.45,5.27-38.14,22.85-41.55,43.31-4.25,25.83,6.35,47.8,25.18,58.87,13.32,7.82,27.79,9.69,43.08,7.56,27.14-3.83,48-27.4,47.51-54.81C237.23,69,213,43.46,179.09,43.72Zm-1.18,84.37c-13.95-.52-26.55-14-25.86-28.42.82-16.86,13-27.3,28.42-27.37,14.33-.06,26.38,13.16,26.19,27.86C206.46,115.91,193.3,128.71,177.91,128.09Z"/><path class="cls-1" d="M97,55.8C80.38,42.25,53.9,39.2,36,53.41c-1.37,1.08-2.68,2.66-5,1.51-.1-1.44-.23-3-.23-4.52,0-13.36,0-26.71-.06-40,0-6.48-1.9-9.1-7.63-9.85A72.85,72.85,0,0,0,5,.61C1.55,1-.12,2.83,0,6.33c.06,1.58,0,3.15,0,4.72V143.77c0,1.57.06,3.15,0,4.72-.1,3.7,1.77,5.14,5.37,4.88a154.81,154.81,0,0,1,15.65-1c5.89.16,9.56-1.94,10.18-8.35,3.57.55,5.2,2.42,7,3.8,15.26,11.81,44,9.1,59.39-3.8C124,121.9,122.39,76.56,97,55.8ZM57.53,128.68c-15.13-.07-28-13.39-28.06-29.1-.1-15.52,12.64-27.8,28.88-27.83,16,0,27.34,11.46,27.43,27.89C85.88,116.53,74,128.75,57.53,128.68Z"/><path class="cls-1" d="M471.45,147.69c-12.44-17.13-23.85-35-37.28-51.42-3.88-4.75-3.73-6.38.58-10.6Q450.44,70.28,466.17,55a29.66,29.66,0,0,0,3.23-3.41c2-2.76,1.37-4.3-2.08-4.43-5.23-.19-10.57.61-15.68-.19C438.35,44.82,429,50,420.53,60c-6.66,7.92-15.14,14.31-23.14,21.68-.7-.53-.36-1.93-.34-3.15.34-22.75-.77-45.51.58-68.25.41-6.84-2-9.47-9-10a89.68,89.68,0,0,0-9.42-.12c-13,.33-14.82,2.65-12,15,.23,1,.55,2,.78,3,7.79,34.3,9.63,68.73,2.86,103.46-1.4,7.19-3.33,14.24-4.74,21.42-1.26,6.41.79,9.92,6.33,10.17,6.52.29,13.07-.11,19.6-.46,2.93-.16,4.95-2,4.86-5.1-.15-5.21,1.42-10.31.31-15.62-1.27-6.13,1.36-11.24,5.57-15.61,4.71-4.87,5.39-4.92,9.34.5q11.31,15.53,22.37,31.24c2.24,3.2,4.53,5.89,8.86,5a62.79,62.79,0,0,1,24.92,0c1.66.33,3.9.79,4.81-1.43C473.8,150.13,472.35,148.93,471.45,147.69Z"/><path class="cls-1" d="M351.46,72.89c-11.39-19.87-29.4-29-44.92-29.3-38.79.2-61.61,20.46-64.46,51.89-1.87,20.79,6.81,44.14,30.28,54.68A65.91,65.91,0,0,0,312.21,155C350.71,147.87,370.71,106.48,351.46,72.89Zm-51.27,55.2c-14.8.59-27.4-12.83-27.43-28.45,0-14.63,13.06-27.66,27.63-27.53,14.86.13,27,12.44,27.11,28C327.59,116.44,313.65,127.57,300.19,128.09Z"/></g></g></svg>