<svg xmlns="http://www.w3.org/2000/svg" viewBox="0 0 500 500"><defs><style>.cls-1{fill:#fff;}.cls-2{fill:#142450;}.cls-3{fill:#eb511a;}</style></defs><g id="Layer_2" data-name="Layer 2"><g id="Layer_1-2" data-name="Layer 1"><rect class="cls-1" width="500" height="500"/><path class="cls-2" d="M200.47,273.64c.31.25.59.55.91.77a2.58,2.58,0,0,0,3.38-.76c.75-1-.22-1.57-.74-2.22a6.25,6.25,0,0,0-.69-.67c-4.62-4.2-12.64-5-17.92-1.81a15.81,15.81,0,0,0-7,17.68c2,7.12,7.27,11.13,14.63,11.15a15,15,0,0,0,10-3.31,4.47,4.47,0,0,0,1.4-1.62,2.28,2.28,0,0,0-.72-2.78c-1-.78-1.61-.16-2.26.48-.17.17-.34.34-.52.5-3.46,3.07-7.42,3.58-11.64,2-4.05-1.52-6.12-4.68-6.73-8.89a12.34,12.34,0,0,1,.32-5A10.71,10.71,0,0,1,200.47,273.64Zm93.26,16.61c-1.12-.85-1.35-.85-2.82.52-3.7,3.45-8,3.94-12.46,2.11s-6-5.54-6.32-9.94a10.93,10.93,0,0,1,8.51-11.72,10.62,10.62,0,0,1,6,.42l.49.2a12.83,12.83,0,0,1,1.42.75,13.52,13.52,0,0,1,2.22,1.72c1,1,2,.92,3.05-.09.88-.83.89-1.57-.06-2.71a11.74,11.74,0,0,0-4.87-3.37,15.59,15.59,0,0,0-17.22,3.6A16.08,16.08,0,0,0,269,289.4c2.84,6,8,8.11,13.09,8.36,5.37.05,9-1.34,11.88-4.45C295.26,291.9,295.21,291.39,293.73,290.25ZM233.51,276.6a10.23,10.23,0,0,0-10.21-9.52,12.07,12.07,0,0,0-8.93,3.39c-.33.31-.64.78-1.2.58s-.48-.76-.49-1.22c0-.72,0-1.44,0-2.15,0-3.84,0-7.68,0-11.52,0-1.81-.31-2.07-1.8-2.2-2.28-.2-2.6.1-2.61,2.47v36.45a11,11,0,0,0,.07,1.91,2.91,2.91,0,0,0,2.91,2.37c1.1-.07,1.34-.53,1.36-2.56v-.72c0-4.47,0-8.95.13-13.42a9.26,9.26,0,0,1,3.88-7.63,8.16,8.16,0,0,1,8.81-1c3,1.42,3.84,4.08,3.86,7.15q0,7.32.1,14.63a17.1,17.1,0,0,0,.07,2.15c.16,1.28.62,1.56,2.22,1.5s2-.32,2-1.69C233.66,289.23,233.82,282.91,233.51,276.6ZM321,294.81c-3.34-4.29-6.7-8.56-10-12.85-1.37-1.75-1.34-1.83.22-3.34q4.83-4.65,9.66-9.33c.42-.41,1.1-.69,1-1.47-4.28-.7-4.62-.59-7.44,2.18q-4.86,4.8-9.77,9.55a5.16,5.16,0,0,1-2,1.55,5.84,5.84,0,0,1-.26-2.52q0-10.54,0-21.1c0-.56,0-1.13,0-1.68-.11-1.49-.37-1.73-1.92-1.84-2.2-.16-2.47.09-2.5,2.32v.48q0,16.31,0,32.61c0,2.08,0,4.16.13,6.23.07,1.29.56,1.58,2.16,1.59s2-.22,2.16-1.55a23.15,23.15,0,0,0-.07-4.78,7.16,7.16,0,0,1,2.63-6.38c1.61-1.39,1.59-1.42,2.89.27l8.33,10.83c.53.69,1,1.53,2,1.53a21,21,0,0,0,4-.11C322.14,295.89,321.41,295.41,321,294.81Zm-60.79-24.92a14.25,14.25,0,0,0-14.56-1.58c-8.39,3.53-10.91,12.71-7.77,20.57,2.57,6.44,9.33,9.89,16.69,8.72a14.1,14.1,0,0,0,8.71-4.61c.39-.45,1.06-.93.56-1.64a4,4,0,0,0-2.21-1.75c-.78-.19-1,.68-1.47,1.06-.18.15-.35.32-.52.49-4.94,4.63-15.63,3.62-17.91-4.84-.63-2.34-.59-2.49,1.74-2.51h9.83v-.05H263.8c.85,0,1.65,0,1.68-1.18C265.63,277.53,264.52,273,260.16,269.89Zm-.89,10.46c-2.79,0-5.57,0-8.36,0s-5.42,0-8.13,0c-1.45,0-1.66-.37-1.29-1.76a10.26,10.26,0,0,1,14.21-6.73,8.77,8.77,0,0,1,5,6.57C261,280,260.8,280.32,259.27,280.35Z"/><path class="cls-2" d="M260.16,269.89a14.25,14.25,0,0,0-14.56-1.58c-8.39,3.53-10.91,12.71-7.77,20.57,2.57,6.44,9.33,9.89,16.69,8.72a14.1,14.1,0,0,0,8.71-4.61c.39-.45,1.06-.93.56-1.64a4,4,0,0,0-2.21-1.75c-.78-.19-1,.68-1.47,1.06-.18.15-.35.32-.52.49-4.94,4.63-15.63,3.62-17.91-4.84-.63-2.34-.59-2.49,1.74-2.51h9.83v-.05H263.8c.85,0,1.65,0,1.68-1.18C265.63,277.53,264.52,273,260.16,269.89Zm-.89,10.46c-2.79,0-5.57,0-8.36,0s-5.42,0-8.13,0c-1.45,0-1.66-.37-1.29-1.76a10.26,10.26,0,0,1,14.21-6.73,8.77,8.77,0,0,1,5,6.57C261,280,260.8,280.32,259.27,280.35Z"/><path class="cls-2" d="M321,294.81c-3.34-4.29-6.7-8.55-10-12.84-1.37-1.76-1.34-1.84.22-3.34q4.83-4.67,9.66-9.33c.42-.41,1.1-.69,1-1.47-4.28-.71-4.62-.59-7.44,2.18q-4.86,4.78-9.77,9.55a5.14,5.14,0,0,1-2,1.54,5.78,5.78,0,0,1-.26-2.51q0-10.56,0-21.11c0-.56,0-1.12,0-1.68-.11-1.49-.37-1.73-1.92-1.84-2.2-.16-2.47.09-2.5,2.32v.48q0,16.31,0,32.62c0,2.07,0,4.15.13,6.23.07,1.29.56,1.58,2.16,1.59s2-.22,2.16-1.55a23.25,23.25,0,0,0-.07-4.79,7.18,7.18,0,0,1,2.63-6.38c1.61-1.38,1.59-1.41,2.89.27l8.33,10.84c.53.68,1,1.52,2,1.52a21,21,0,0,0,4-.11C322.14,295.9,321.41,295.42,321,294.81Z"/><path class="cls-2" d="M223.3,267.08a12,12,0,0,0-8.93,3.4c-.33.31-.64.78-1.2.58s-.48-.77-.49-1.22c0-.72,0-1.44,0-2.16,0-3.84,0-7.67,0-11.51,0-1.81-.31-2.07-1.8-2.21-2.28-.2-2.6.1-2.61,2.48v36.45a11.06,11.06,0,0,0,.07,1.91,2.91,2.91,0,0,0,2.91,2.36c1.1-.07,1.34-.52,1.36-2.56v-.71c0-4.48,0-9,.13-13.43a9.29,9.29,0,0,1,3.88-7.63,8.18,8.18,0,0,1,8.81-1c3,1.42,3.84,4.07,3.86,7.15q0,7.31.1,14.62a17.26,17.26,0,0,0,.07,2.16c.16,1.27.62,1.56,2.22,1.5s2-.33,2-1.69c0-6.32.16-12.64-.15-18.94A10.24,10.24,0,0,0,223.3,267.08Z"/><path class="cls-2" d="M293.73,290.26c-1.12-.85-1.35-.85-2.82.52-3.7,3.45-8,3.94-12.46,2.11s-6-5.54-6.32-9.95a10.85,10.85,0,0,1,18.62-8.62c1,1,2,.92,3.05-.09.88-.84.89-1.57-.06-2.72a11.74,11.74,0,0,0-4.87-3.37,15.58,15.58,0,0,0-17.22,3.61A16.08,16.08,0,0,0,269,289.41c2.84,6,8,8.1,13.09,8.36,5.37.05,9-1.35,11.88-4.46C295.26,291.9,295.21,291.39,293.73,290.26Z"/><path class="cls-2" d="M203.33,270.77c-4.62-4.21-12.64-5-17.92-1.82a15.82,15.82,0,0,0-7,17.68c2,7.12,7.27,11.14,14.63,11.15a14.89,14.89,0,0,0,10-3.31,4.44,4.44,0,0,0,1.4-1.61,2.3,2.3,0,0,0-.72-2.79c-1-.77-1.61-.15-2.26.49-.17.16-.34.34-.52.5-3.46,3.07-7.42,3.58-11.64,2-4.05-1.53-6.12-4.69-6.73-8.89a12.38,12.38,0,0,1,.32-5,10.71,10.71,0,0,1,17.52-5.53c.31.26.59.56.91.78a2.59,2.59,0,0,0,3.38-.76c.75-1-.22-1.58-.74-2.23A6.17,6.17,0,0,0,203.33,270.77Z"/><path class="cls-3" d="M232.42,215.62a15.28,15.28,0,0,0-4.72.53A16.93,16.93,0,0,0,215,229.38c-1.3,7.89,1.94,14.6,7.69,18a19.79,19.79,0,0,0,13.16,2.31,16.82,16.82,0,0,0,14.51-16.74A17.41,17.41,0,0,0,232.42,215.62Zm-.36,25.77a8.62,8.62,0,0,1-7.9-8.68,8.41,8.41,0,0,1,8.68-8.36c4.38,0,8.06,4,8,8.51A8.6,8.6,0,0,1,232.06,241.39Z"/><path class="cls-3" d="M207.34,219.31c-5.07-4.14-13.16-5.07-18.64-.73-.42.33-.82.81-1.54.46,0-.44-.07-.91-.07-1.38,0-4.08,0-8.16,0-12.23,0-2-.58-2.78-2.33-3a22.5,22.5,0,0,0-5.5,0,1.51,1.51,0,0,0-1.52,1.75c0,.48,0,1,0,1.44v40.54c0,.48,0,1,0,1.44,0,1.13.54,1.57,1.64,1.49,1.59-.13,3.19-.32,4.78-.29,1.8.05,2.92-.59,3.11-2.55a4.18,4.18,0,0,1,2.14,1.16c4.66,3.61,13.44,2.78,18.14-1.16C215.58,239.5,215.1,225.65,207.34,219.31Zm-12.05,22.26a8.92,8.92,0,0,1-8.57-8.89,8.57,8.57,0,0,1,8.82-8.5c4.89,0,8.35,3.5,8.38,8.52S200.32,241.59,195.29,241.57Z"/><path class="cls-3" d="M321.72,247.38c-3.8-5.24-7.29-10.69-11.39-15.71-1.18-1.45-1.14-1.95.18-3.24q4.78-4.69,9.6-9.38a9.59,9.59,0,0,0,1-1c.62-.85.42-1.32-.63-1.35a42.41,42.41,0,0,1-4.79-.06c-4.06-.64-6.93,1-9.5,4-2,2.41-4.63,4.37-7.07,6.62-.22-.16-.11-.59-.11-1,.11-6.94-.23-13.9.18-20.84.13-2.09-.6-2.89-2.75-3.06a27.44,27.44,0,0,0-2.87,0c-4,.1-4.53.81-3.66,4.59.07.31.17.61.24.92a75.71,75.71,0,0,1,.87,31.61c-.43,2.19-1,4.35-1.45,6.54-.38,2,.24,3,1.94,3.1a59.69,59.69,0,0,0,6-.14,1.44,1.44,0,0,0,1.49-1.56c0-1.59.43-3.14.09-4.77a5.18,5.18,0,0,1,1.7-4.76c1.44-1.49,1.65-1.5,2.86.15q3.45,4.74,6.83,9.54c.68,1,1.38,1.8,2.7,1.54a19.17,19.17,0,0,1,7.62,0c.5.1,1.19.24,1.47-.44C322.44,248.12,322,247.76,321.72,247.38Z"/><path class="cls-3" d="M285.07,224.53c-3.48-6.07-9-8.85-13.72-8.95-11.85.06-18.82,6.25-19.69,15.85-.57,6.35,2.08,13.48,9.25,16.7a20.12,20.12,0,0,0,12.17,1.47C284.84,247.43,291,234.79,285.07,224.53Zm-15.66,16.86c-4.52.18-8.37-3.92-8.38-8.69a8.66,8.66,0,0,1,8.44-8.41,8.46,8.46,0,0,1,8.28,8.54A8.69,8.69,0,0,1,269.41,241.39Z"/></g></g></svg>